<?xml version="1.0" encoding="UTF-8" standalone="no"?>
<!-- Generator: Adobe Illustrator 19.1.0, SVG Export Plug-In . SVG Version: 6.00 Build 0)  -->

<svg
   xmlns:dc="http://purl.org/dc/elements/1.1/"
   xmlns:cc="http://creativecommons.org/ns#"
   xmlns:rdf="http://www.w3.org/1999/02/22-rdf-syntax-ns#"
   xmlns:svg="http://www.w3.org/2000/svg"
   xmlns="http://www.w3.org/2000/svg"
   xmlns:sodipodi="http://sodipodi.sourceforge.net/DTD/sodipodi-0.dtd"
   xmlns:inkscape="http://www.inkscape.org/namespaces/inkscape"
   version="1.1"
   id="Capa_1"
   x="0px"
   y="0px"
   viewBox="0 0 405.456 405.456"
   style="enable-background:new 0 0 405.456 405.456;"
   xml:space="preserve"
   inkscape:version="0.91 r13725"
   sodipodi:docname="arrow_down_green.svg"><metadata
     id="metadata41"><rdf:RDF><cc:Work
         rdf:about=""><dc:format>image/svg+xml</dc:format><dc:type
           rdf:resource="http://purl.org/dc/dcmitype/StillImage" /><dc:title /></cc:Work></rdf:RDF></metadata><defs
     id="defs39" /><sodipodi:namedview
     pagecolor="#ffffff"
     bordercolor="#666666"
     borderopacity="1"
     objecttolerance="10"
     gridtolerance="10"
     guidetolerance="10"
     inkscape:pageopacity="0"
     inkscape:pageshadow="2"
     inkscape:window-width="1280"
     inkscape:window-height="972"
     id="namedview37"
     showgrid="false"
     inkscape:zoom="2.3282428"
     inkscape:cx="216.44456"
     inkscape:cy="220.18728"
     inkscape:window-x="-8"
     inkscape:window-y="-8"
     inkscape:window-maximized="1"
     inkscape:current-layer="Capa_1" /><g
     id="g7" /><g
     id="g9" /><g
     id="g11" /><g
     id="g13" /><g
     id="g15" /><g
     id="g17" /><g
     id="g19" /><g
     id="g21" /><g
     id="g23" /><g
     id="g25" /><g
     id="g27" /><g
     id="g29" /><g
     id="g31" /><g
     id="g33" /><g
     id="g35" /><path
     style="fill:#44aa00"
     d="m 197.01443,323.42361 c -1.3555,-0.43332 -3.38492,-1.38253 -4.50984,-2.10935 C 191.37968,320.58745 148.39397,277.89952 96.980806,226.4522 6.9488324,136.36044 3.4498994,132.80078 2.0807784,129.90507 0.85419843,127.31084 0.63565143,126.33892 0.48720243,122.81818 0.28692643,118.06825 1.1882454,114.69371 3.6357924,111.02987 4.4333484,109.83598 18.093006,95.880562 33.990586,80.017832 64.570166,49.50529 64.370396,49.682736 69.767416,48.23891 c 4.75307,-1.271556 10.61525,-0.317686 15.0328,2.446078 1.28622,0.804707 25.399304,24.586034 60.121894,59.294732 l 57.97435,57.95115 58.42244,-58.37034 c 36.54121,-36.508621 59.14634,-58.782852 60.35523,-59.471739 3.97498,-2.265139 9.6136,-3.012382 13.95903,-1.849881 5.42474,1.451243 5.11748,1.177025 36.56776,32.635202 27.53277,27.539688 29.79246,29.909858 31.02521,32.542098 2.48309,5.30203 2.54398,11.02275 0.17553,16.48886 -1.04185,2.40444 -7.39063,8.85663 -94.78851,96.33238 -51.51953,51.56543 -94.59031,94.34875 -95.71284,95.07403 -4.44904,2.87462 -10.84183,3.72458 -15.88588,2.11213 z"
     id="path3379"
     inkscape:connector-curvature="0" /></svg>