<?xml version="1.0" encoding="UTF-8" standalone="no"?>
<!-- Generator: Adobe Illustrator 19.1.0, SVG Export Plug-In . SVG Version: 6.00 Build 0)  -->

<svg
   xmlns:dc="http://purl.org/dc/elements/1.1/"
   xmlns:cc="http://creativecommons.org/ns#"
   xmlns:rdf="http://www.w3.org/1999/02/22-rdf-syntax-ns#"
   xmlns:svg="http://www.w3.org/2000/svg"
   xmlns="http://www.w3.org/2000/svg"
   xmlns:sodipodi="http://sodipodi.sourceforge.net/DTD/sodipodi-0.dtd"
   xmlns:inkscape="http://www.inkscape.org/namespaces/inkscape"
   version="1.1"
   id="Capa_1"
   x="0px"
   y="0px"
   viewBox="0 0 405.457 405.457"
   style="enable-background:new 0 0 405.457 405.457;"
   xml:space="preserve"
   inkscape:version="0.91 r13725"
   sodipodi:docname="arrow_up_red.svg"><metadata
     id="metadata41"><rdf:RDF><cc:Work
         rdf:about=""><dc:format>image/svg+xml</dc:format><dc:type
           rdf:resource="http://purl.org/dc/dcmitype/StillImage" /><dc:title /></cc:Work></rdf:RDF></metadata><defs
     id="defs39" /><sodipodi:namedview
     pagecolor="#ffffff"
     bordercolor="#666666"
     borderopacity="1"
     objecttolerance="10"
     gridtolerance="10"
     guidetolerance="10"
     inkscape:pageopacity="0"
     inkscape:pageshadow="2"
     inkscape:window-width="1280"
     inkscape:window-height="972"
     id="namedview37"
     showgrid="false"
     inkscape:zoom="2.328237"
     inkscape:cx="129.96165"
     inkscape:cy="210.97784"
     inkscape:window-x="-8"
     inkscape:window-y="-8"
     inkscape:window-maximized="1"
     inkscape:current-layer="Capa_1" /><g
     id="g3"
     style="fill:#a02c2c;fill-opacity:1"><path
       style="fill:#a02c2c;fill-opacity:1"
       d="M331.322,341.31c4.985-0.078,9.911-2.163,13.438-5.688l55-55c3.601-3.599,5.697-8.659,5.697-13.75   s-2.096-10.151-5.697-13.75L216.478,69.841c-3.599-3.601-8.659-5.697-13.75-5.697s-10.151,2.096-13.75,5.697L5.697,253.123   C2.096,256.722,0,261.782,0,266.873s2.096,10.151,5.697,13.75l55,55c3.598,3.591,8.651,5.681,13.734,5.681   s10.136-2.09,13.734-5.681l114.562-114.562L317.29,335.623C320.958,339.287,326.139,341.387,331.322,341.31z"
       id="path5" /></g><g
     id="g7" /><g
     id="g9" /><g
     id="g11" /><g
     id="g13" /><g
     id="g15" /><g
     id="g17" /><g
     id="g19" /><g
     id="g21" /><g
     id="g23" /><g
     id="g25" /><g
     id="g27" /><g
     id="g29" /><g
     id="g31" /><g
     id="g33" /><g
     id="g35" /></svg>