<?xml version="1.0" encoding="UTF-8" standalone="no"?>
<!-- Created with Inkscape (http://www.inkscape.org/) -->

<svg
   xmlns:dc="http://purl.org/dc/elements/1.1/"
   xmlns:cc="http://creativecommons.org/ns#"
   xmlns:rdf="http://www.w3.org/1999/02/22-rdf-syntax-ns#"
   xmlns:svg="http://www.w3.org/2000/svg"
   xmlns="http://www.w3.org/2000/svg"
   xmlns:sodipodi="http://sodipodi.sourceforge.net/DTD/sodipodi-0.dtd"
   xmlns:inkscape="http://www.inkscape.org/namespaces/inkscape"
   id="svg3390"
   version="1.1"
   inkscape:version="0.91 r13725"
   xml:space="preserve"
   width="744.09448"
   height="524.40948"
   viewBox="0 0 744.09448 524.40948"
   sodipodi:docname="logoISPAT.svg"><metadata
     id="metadata3396"><rdf:RDF><cc:Work
         rdf:about=""><dc:format>image/svg+xml</dc:format><dc:type
           rdf:resource="http://purl.org/dc/dcmitype/StillImage" /><dc:title></dc:title></cc:Work></rdf:RDF></metadata><defs
     id="defs3394"><clipPath
       clipPathUnits="userSpaceOnUse"
       id="clipPath3412"><path
         d="m 377.924,297.4309 0.171,0 c 0.6704,2.4414 2.9151,4.2485 5.5624,4.2485 l 20.6504,0 c 2.6473,0 4.892,-1.8071 5.5624,-4.2485 l 0.1743,0 0,-0.9304 c 0.0202,-0.1933 0.0301,-0.3892 0.0301,-0.5876 l 0,-30.5107 c 0,-0.1981 -0.01,-0.3943 -0.0301,-0.5876 l 0,-113.4094 c -0.0348,0.005 -0.07,0.0122 -0.1068,0.0196 -1.0866,0.2214 -0.8527,1.294 -0.8527,2.5832 l -0.4133,0 c 0,-0.9947 0.0692,-1.1548 -0.6021,-1.59 -0.4056,-0.2633 -0.9,-0.5896 -1.4544,-0.6023 0.1321,-0.4958 0.0108,-0.3685 0.5488,-0.4133 l -10e-4,-1.5046 -0.9587,0 c 0,-0.576 -0.0584,-0.5551 0.1375,-0.9596 -0.4624,-0.2452 -0.8672,-0.6125 -1.2881,-0.9513 l -1.6206,0 c 0.1262,0.6676 0.3334,1.4327 0.4442,1.9109 -0.5054,-0.3663 -0.6763,-1.2983 -0.9485,-1.9109 l -6.1061,0 c -0.4776,0.5097 -0.5893,0.6696 0.2305,1.4687 0.3742,0.3656 0.3569,0.4424 0.9306,0.5768 l 0,0.2761 c -0.8396,0.0695 -1.4301,0.7637 -2.0608,1.0919 -0.3855,0.2007 -0.8447,0.2486 -1.2124,0.4323 -0.5439,0.2713 -0.3191,0.4357 -0.8098,0.8342 -0.9757,0.7929 -1.6529,0.1511 -2.7451,0.26 -0.9442,0.0938 -1.9545,0.2593 -3.0402,0.2593 0,0.7631 0.6279,3.2749 1.0446,4.0235 0.2971,0.5332 0.3807,0.633 1.148,0.633 0,0.7192 -0.0218,1.3076 0.0763,1.9803 0.1049,0.718 0.1981,1.2651 0.1981,1.9936 0.4318,-0.2092 0.6259,-0.1372 1.2337,-0.1372 l 0,1.0962 c 1.6444,0 1.0525,0.9822 0.2772,2.1977 -0.3291,0.5156 -0.3112,0.2979 -0.8254,0.5448 0.195,0.4036 0.1114,0.6276 0.2171,1.1514 0.4958,2.4565 1.0536,2.2125 1.2903,3.2326 -0.7959,1.196 -2.0052,1.539 -3.2896,2.1941 -0.5476,0.2778 -1.2863,0.6185 -1.9,0.8404 -1.2496,0.4522 -1.7745,0.3291 -1.9372,0.9406 -0.8139,-0.0669 -0.3036,-0.2271 -0.9179,-0.4556 -0.4649,-0.1732 -1.0565,0.2696 -2.6399,-0.1 -0.4969,-0.1157 -0.6494,-0.2534 -1.2393,-0.2662 -0.1145,0.4292 -0.9916,1.1676 -1.1135,1.2266 -0.7072,0.3497 -1.1409,-0.1605 -1.8136,-0.2577 l 0,90.7602 c -0.0218,0.203 -0.0334,0.4091 -0.0334,0.6177 l 0,30.5107 c 0,0.2086 0.0116,0.4147 0.0334,0.6177 l 0,0.9003 z"
         id="path3414"
         inkscape:connector-curvature="0"
         style="clip-rule:evenodd" /></clipPath><clipPath
       clipPathUnits="userSpaceOnUse"
       id="clipPath3422"><path
         d="m 415.1421,261.0513 0.0694,0 c 0.567,2.5866 2.8831,4.5377 5.6336,4.5377 l 20.6507,0 c 2.7507,0 5.0666,-1.9511 5.6336,-4.5377 l 0.1332,0 0,-1.2291 0,-30.5104 0,-40.7724 -0.3512,0 c -0.0335,-1.5452 -0.6109,0.3761 -0.6826,0.6848 -0.673,-0.0555 -0.5462,-0.3237 -1.1599,0.0649 l -1.4406,1.3088 c -0.2738,0.3798 -0.2489,0.4969 -0.8283,0.5448 -0.1621,-0.4034 0.3047,-0.2137 -0.4113,-0.2741 0,-0.6883 0.1369,-0.8433 0.1369,-1.6444 -0.7617,0 -0.8005,-0.1752 -0.957,0.411 l -0.2766,0 c -0.108,-0.405 -0.0556,-0.2216 -0.2739,-0.5479 -1.0621,0 -1.485,0.2041 -2.313,0.2684 l -0.1545,-0.5422 c -0.8005,0.0666 -0.1641,0.2738 -1.2334,0.2738 l 0,-2.4667 c -0.1417,-0.0748 -0.0844,-0.0309 -0.2596,-0.1508 -0.4669,-0.3203 -0.0213,-0.3234 -0.6996,-0.3974 0,-1.5171 0.5482,-0.5182 0.5482,-2.7403 -1.0899,0 -2.1608,0.4754 -2.1929,-0.9618 l 0.2741,0 c 0.1514,-0.4495 -0.0411,-0.117 0.2702,-0.1496 l 0.2778,0.0139 c 0,-1.6002 -0.2739,-1.374 -0.2739,-3.6984 -1.5349,-1.0279 -1.381,-1.3706 -2.3298,-1.3706 l -0.1371,-2.8774 c -0.4876,-0.3263 -2.3029,-1.264 -2.4849,-1.6472 -0.2092,-0.4391 -0.0748,-0.4802 0.1548,-0.819 -0.3972,-0.2106 -0.5638,-0.4368 -0.9193,-0.4283 -0.5562,0.0134 -0.1769,-1.4119 -0.1769,-2.1781 0.6886,0 0.7104,-0.015 1.2331,-0.1369 0,-1.2243 -0.2208,-0.6718 -0.6851,-1.3689 0.0776,-0.9343 0.8217,-1.1707 1.2333,-1.7815 -0.3078,-0.4567 -1.029,-0.8504 -1.8334,-0.6106 -0.6004,0.1786 -1.0398,0.7398 -1.5928,0.8861 0,-1.4652 0.6979,-1.8627 0.6987,-3.2908 9e-4,-0.9618 -0.1766,-0.807 -0.3509,-1.58 -0.3612,-1.6007 0.2676,-2.9361 0.2126,-3.6227 -0.0516,-0.6335 -0.4581,-0.7639 -0.8019,-1.131 -0.6894,-0.737 -0.9068,-1.5026 -2.2258,-1.6118 l 0,-0.822 c -0.3915,-0.0913 -0.4331,-0.1372 -0.9592,-0.1372 0,-1.2606 -0.5009,-0.6639 -0.7952,-1.6733 -0.2137,-0.7333 -0.1763,-1.4346 0.11,-2.0265 -0.4226,-0.2832 -0.6018,-0.4283 -1.0154,-0.7665 -0.3968,-0.3248 -0.4867,-0.4666 -1.1752,-0.4666 l 0,0.9593 c -0.9147,0.2126 -0.6945,0.0405 -1.6509,0.005 -1.8453,-0.0675 -0.8558,-1.1121 -2.9324,0.4827 -0.6208,0.4768 -0.6582,0.7404 -1.6957,0.7447 l 0,77.1911 c -0.0417,0.2786 -0.0635,0.5632 -0.0635,0.8532 l 0,30.5104 c 0,0.29 0.0218,0.5746 0.0635,0.8532 l 0,0.3759 z"
         id="path3424"
         inkscape:connector-curvature="0"
         style="clip-rule:evenodd" /></clipPath><clipPath
       clipPathUnits="userSpaceOnUse"
       id="clipPath3432"><path
         d="m 451.5514,307.6163 0.307,0 c 0.8254,2.1784 2.937,3.7372 5.3957,3.7372 l 20.6504,0 c 2.4588,0 4.5703,-1.5588 5.3958,-3.7372 l 0.371,0 0,-2.0293 0,-30.5107 0,-76.508 c -0.4104,-0.0425 -0.8209,-0.1091 -1.2016,-0.2216 -0.8059,-0.2393 -0.8433,-0.2155 -1.8382,-0.2155 0,0.7016 0.1485,0.8272 0.2738,1.37 l -1.2336,0 c -0.0539,0.6228 0.008,0.2197 -0.1395,0.4111 -0.009,-0.4176 -0.0618,-0.4998 -0.1369,-0.8218 -0.6843,0.0147 -1.3618,0.3464 -2.1382,0.4839 -1.3671,0.2418 -0.5145,-0.7081 -1.8346,-0.0732 0,3.4784 -0.9592,2.5662 -0.9592,6.0293 -0.5338,0 -0.9063,0.0978 -1.4545,0.1905 -1.0457,0.1766 -0.4467,0.0553 -1.0514,0.4555 -0.6196,0.4111 -2.1163,0.1707 -2.7555,-0.0462 -1.599,-0.5417 -3.4804,-0.5998 -5.5684,-0.5998 -0.0125,-0.5542 -0.2282,-1.2628 -0.411,-1.6446 l -1.6447,0 c -0.1185,-0.1766 -0.174,-0.2943 -0.3577,-0.4644 -0.1505,-0.1397 -0.0578,-0.032 -0.2324,-0.1788 -0.4349,-0.3657 -0.4743,-0.8252 -0.7365,-1.319 -0.3126,-0.5865 -1.2288,-1.1891 -1.9604,-1.1891 -0.0783,0.7098 0.1613,0.248 -0.2767,0.4113 -0.4652,-0.6945 -0.7327,-0.5207 -1.7833,-0.5465 -0.5468,-0.0134 -0.64,-0.1077 -0.9745,-0.1165 -0.4215,-0.01 -0.474,0.1301 -0.8654,0.1987 -0.5967,0.1046 -0.4539,-0.0783 -0.9355,-0.1843 -0.3257,-0.0711 -0.6947,-0.049 -1.0227,-0.005 -0.269,0.0366 -0.5958,0.0405 -0.8813,0.1057 l 0,73.6223 c -0.042,0.2798 -0.0641,0.5652 -0.0641,0.8558 l 0,30.5107 c 0,0.2905 0.0221,0.576 0.0641,0.8558 l 0,1.1735 z"
         id="path3434"
         inkscape:connector-curvature="0"
         style="clip-rule:evenodd" /></clipPath></defs><sodipodi:namedview
     pagecolor="#ffffff"
     bordercolor="#666666"
     borderopacity="1"
     objecttolerance="10"
     gridtolerance="10"
     guidetolerance="10"
     inkscape:pageopacity="0"
     inkscape:pageshadow="2"
     inkscape:window-width="1280"
     inkscape:window-height="972"
     id="namedview3392"
     showgrid="false"
     inkscape:zoom="0.90006"
     inkscape:cx="539.92251"
     inkscape:cy="170.21993"
     inkscape:window-x="-8"
     inkscape:window-y="-8"
     inkscape:window-maximized="1"
     inkscape:current-layer="g3398" /><g
     id="g3398"
     inkscape:groupmode="layer"
     inkscape:label="scala di grigi - negativo"
     transform="matrix(1.25,0,0,-1.25,0,524.4095)"><path
       d="m 488.6408,220.9215 c 0.081,-0.0578 0.1669,-0.1185 0.2596,-0.1811 0.197,0.1451 0.7815,0.8677 0.9295,1.1245 0.4626,0.8039 0.1593,0.6701 1.1588,1.0349 1.103,0.4028 2.3442,0.4442 3.8064,0.4442 0,-1.2336 0.3446,-0.7464 0.5479,-1.5072 l 0.6829,0 c 0.2134,0.9136 0.1238,0.2551 0.7194,0.7881 0.2639,0.2364 0.4266,0.6165 0.5142,0.9932 0.4629,-0.1224 0.3858,-0.2565 1.0151,-0.3682 0.576,-0.1021 0.7784,0.0635 1.3153,0.0944 0.8937,0.0519 1.9644,-3e-4 2.878,-3e-4 0.0754,0.3226 0.1278,0.4045 0.1369,0.822 1.9032,0 2.0939,0.6254 3.5322,0.9913 0.8051,0.2047 1.9942,0.2444 2.7791,0.6472 0.5738,0.2945 0.237,0.2313 0.6798,0.5541 0.9448,0.3079 1.8048,-0.5757 2.5611,1.0007 0.8838,1.8428 0.9808,1.1531 0.8643,2.5622 1.8663,0.9856 0.6446,1.5891 2.0559,1.9182 0,0.9119 -0.3478,1.389 0.0927,2.2363 0.6021,1.1571 0.5927,0.4405 0.5927,2.1486 0.6642,0 0.9321,-0.1698 1.404,-0.242 0.5202,-0.0797 1.0812,-0.0318 1.6113,-0.0318 -0.0145,0.646 -0.6687,1.626 -0.005,2.0605 l 0.712,0.3844 c 0.332,0.1735 -0.0913,0.0465 0.3906,0.1584 l 0,2.4639 c -1.2206,0 -2.6436,-0.265 -3.488,0.4879 l -0.6021,0.7684 c -1.2744,1.9415 0.1004,1.4777 -2.4899,2.7176 0.1953,2.3581 1.9187,2.6691 1.9187,4.5218 -1.1761,-0.0983 -0.8081,-0.1621 -1.726,0.4663 -0.4654,0.3189 -1.042,0.7121 -1.6979,0.7668 -0.1701,-0.6372 -0.2157,-0.1205 -0.2741,-0.822 l -0.6877,0 c -0.0975,0.3645 -0.3167,0.6324 -0.5122,1.0048 -0.5783,1.1021 0.0615,1.4225 0.1094,2.297 0.0677,1.2415 -0.2571,0.0969 -0.2826,1.22 -1.0593,0 -0.8022,-0.007 -1.5529,-0.3637 -2.1852,-1.0386 -0.9762,-1.0298 -2.6943,-1.0069 -0.8016,0.0105 -1.0341,-0.123 -1.6461,-0.1366 -0.1374,0.5142 -1.0063,1.637 -1.3708,2.0554 0.5051,0.697 0.2733,-0.1828 0.474,1.0349 0.1097,0.6679 0.1544,0.7203 0.3248,1.1832 0.2123,0.576 0.1559,0.5386 0.4793,1.0284 0.3422,0.5185 0.2296,0.3405 0.2296,1.1384 l -0.6851,0 c -0.4062,1.745 -0.2744,0.8428 -0.2744,2.8775 -0.5119,0.246 -0.9258,0.2483 -1.4981,0.4198 -0.6624,0.1981 -0.667,0.2438 -0.9686,0.8135 l -1.3708,0 0,1.7813 c -2.6643,1.4114 -2.1198,0.2738 -2.8052,1.4437 -0.2112,0.3594 -0.3764,0.4825 -0.4841,0.887 0.2106,0.792 0.7647,0.9603 1.7815,0.9603 l 0,0.6855 c 0.7968,-0.0661 0.6548,-0.6999 1.5305,-0.4434 0.6737,0.1979 0.5714,0.504 1.485,0.5803 0,0.9088 -0.1942,0.5368 0,1.3702 l 0.4136,0 c 0.1437,-0.6168 0.3674,-0.6828 0.7401,-1.1786 0.3716,-0.4941 0.3801,-0.6027 1.1761,-0.6027 0,0.9488 -0.163,1.3902 -0.2452,2.0937 -0.0927,0.7946 0.1318,0.2327 -0.0201,1.8845 -0.0734,0.794 10e-4,1.3754 0.1828,1.9959 0.3308,1.1287 0.2563,1.2886 0.7679,1.4255 l 0,0.9564 c -0.4799,0.1281 -0.3084,0.0522 -0.5485,0.4125 0.1517,0.6525 0.5908,0.9 0.792,1.4014 0.165,0.4113 0.3048,1.3331 0.3048,1.8882 0.8753,0 2.2439,0.17 2.8783,-0.137 0.1987,0.3754 0.3568,0.7047 0.6811,0.9635 0.3158,0.2523 0.7376,0.345 1.0517,0.5999 0.8147,0.6607 -0.2753,1.32 -0.2106,2.2473 0.0858,1.2327 0.3211,1.4805 -0.6401,2.2759 -0.4309,0.3566 -0.3297,0.4657 -0.796,0.8484 -0.5485,0.4507 -0.5955,0.4521 -1.0431,0.4621 -0.1137,-0.2795 0.1411,-0.3722 -0.6154,-0.2379 -0.1573,0.0278 -0.5576,0.2064 -0.7348,0.2597 -0.9456,0.284 -3.6944,0.2732 -5.0941,0.3895 -0.0819,0.9858 -0.4521,0.6295 -0.123,1.7623 0.1814,0.6253 0.123,1.2634 0.123,2.0766 0.5545,0 0.5987,-0.1151 0.9088,0.188 0.7257,0.7089 0.3747,1.8 0.0507,2.4145 l -3.4239,0 c -0.0298,-0.0187 -0.0749,-0.0329 -0.097,-0.0408 l -0.7506,-0.2103 c -0.7529,-0.2622 -0.339,-0.2433 -0.6367,-0.459 l -3.3071,-1.0788 c -0.6648,-0.1744 -1.226,-0.1307 -2.0642,-0.1307 -0.182,0.2718 -0.2498,0.3807 -0.4113,0.6851 -0.8808,0 -1.1382,-0.0161 -1.7657,0.1684 l 0,-73.1574 z"
       style="fill:#ffffff;fill-opacity:1;fill-rule:nonzero;stroke:none"
       id="path3402"
       inkscape:connector-curvature="0" /><path
       d="m 339.1673,199.499 0,-2.327 c 2.397,-0.5567 0.2021,-0.9595 4.3875,-0.9595 0,-2.6175 -0.0601,-1.3791 -0.6318,-2.5339 -0.3589,-0.7257 0.2202,-1.2804 0.2202,-2.3987 0.356,-0.1715 0.1579,-0.1256 0.6854,-0.1372 0,-1.383 0.1962,-1.7836 1.1432,-2.2824 0.7983,-0.4204 1.0928,-0.9715 1.3238,-1.9667 -0.2956,-0.4442 -0.5292,-0.3578 -0.5448,-0.9482 -0.0105,-0.3969 0.1338,-0.6035 0.1338,-1.2456 -0.3523,-0.1859 -0.4833,-0.2939 -0.883,-0.4881 -0.3487,-0.1695 -0.1395,-0.0346 -0.4499,-0.235 -0.1303,-0.0842 -0.1556,-0.1315 -0.3118,-0.2361 0,-0.8578 0.1279,-0.6015 0.2741,-1.2331 -1.7452,-0.4654 -0.172,-2.5072 0.9593,-2.601 l -0.127,-3.0039 c 0.1157,-0.7401 0.3172,-0.3583 0.4017,-1.1078 0.0431,-0.381 -3e-4,-1.0896 -3e-4,-1.5063 0.3263,-0.2189 0.1426,-0.1661 0.5479,-0.2741 l 0,-0.4136 c -0.9646,-0.2574 -1.3039,-1.8131 0.273,-2.8752 1.1387,0.2662 1.2314,0.7773 2.4863,0.2948 0.8195,-0.3152 1.4896,-0.851 1.4896,-1.8045 -0.2977,-0.0692 -0.4252,-0.125 -0.739,-0.2214 -1.2198,-0.375 -0.9335,-0.1225 -1.0914,-0.6888 -0.0567,-0.203 -0.0807,-0.3827 -0.0895,-0.7319 l 0.9606,0 c -0.0465,-0.5585 -0.0272,-0.5477 -0.4113,-0.6877 l 0,-1.0936 0.4113,0 c -0.0139,-0.6214 -0.1372,-0.5448 -0.1372,-1.2331 2.2748,-1.2053 3.384,-0.9862 5.3017,0.0417 0.6216,0.333 0.7458,0.6826 1.273,1.0564 l 2.7856,1.8743 c 0.9785,0.493 3.2097,0.9437 3.5221,-0.2319 l 0.684,0 c 0.1567,0.5868 0.2851,0.3365 0.5281,0.8419 0.4484,0.9326 0.1873,2.0988 1.1168,2.7207 -0.343,0.6418 -0.2744,0.5644 -0.2744,1.5075 0.8836,0 1.4151,-0.0627 2.086,-0.1259 1.069,-0.1003 1.9375,1.0732 2.7494,1.6056 0.4084,0.2678 1.2617,0.358 1.3351,-0.5208 l 1.368,0 c 0.284,0.5366 0.3452,0.7008 0.8022,0.8468 l 0,111.9359 c -0.5122,-0.2384 -0.9335,-0.6069 -1.294,-1.1617 -0.4301,-0.6619 -0.7495,-0.8739 -1.241,-1.3632 -0.4434,-0.4407 -0.9494,-0.9374 -1.0115,-1.5976 l -1.2282,0 c -0.1491,-0.411 0.0371,-0.2012 -0.5196,-0.4405 -0.1893,-0.0813 -0.3702,-0.1332 -0.5831,-0.2386 -0.5822,-0.2892 -0.5391,-0.3898 -0.9898,-0.7915 -1.1163,-0.9947 -1.5381,-0.0184 -2.8642,-0.4238 -0.8421,-0.2573 -1.9224,-0.4606 -2.7618,-0.8073 -1.3011,-0.5374 -0.8778,0.0981 -2.6977,0.0981 -0.3591,-1.5381 -0.2095,-0.7115 -0.165,-2.0664 0.0162,-0.487 -0.1267,-0.4425 -0.1139,-1.0795 0.0116,-0.5791 0.0913,-0.4382 0.1341,-0.9708 0.0785,-0.9684 -0.2226,-1.3885 0.3327,-1.9959 0.6934,-0.758 0.2554,-1.0103 1.3196,-1.0103 l 0,-0.9615 c -0.6271,-0.3314 -0.6693,-0.3957 -1.071,-0.9845 -0.4059,-0.5947 -0.5734,-0.5907 -0.5751,-1.3453 l -0.8209,0 0,-1.0959 c -1.6903,-1.1316 -3.31,-0.822 -5.3453,-0.822 -0.4856,-0.9162 -1.5426,-1.808 -2.6042,-2.0557 0,-3.0886 0.005,-1.4899 -1.7155,-1.5823 -1.2844,-0.0686 -0.8258,-0.004 -1.1101,-0.936 -0.1981,-0.6494 -0.3268,-1.0009 -0.3268,-1.7271 0.7464,-0.3586 1.813,-0.4975 2.6206,-0.8051 1.2688,-0.4839 2.5319,-1.6991 3.5473,-1.9355 l 0,-0.4136 c -0.4734,-0.1261 -0.4201,-0.0887 -0.483,-0.7463 -0.1508,-1.5792 2.5404,-2.0713 1.9114,-3.5439 -0.324,-0.7588 -0.9927,-0.2262 -1.0174,-1.3277 -0.6962,0 -0.8424,0.1698 -0.9672,-0.4142 -0.0944,-0.4436 0.0278,-0.9167 0.1908,-1.1817 0.3334,-0.5412 0.8997,-0.8683 1.7357,-0.8683 0,-0.9635 -0.0808,-1.0797 0.2131,-1.8428 1.4284,-3.7108 0.5672,-3.5941 0.4723,-4.737 -0.7866,-0.0173 -1.1863,-0.3438 -1.5075,-0.8206 -0.267,-0.9102 1.4735,-1.4491 -1.4714,-4.0116 -0.6999,-0.6094 -0.9103,-2.2847 -1.38,-3.1419 -0.2145,-0.3918 -0.2882,-0.4944 -0.301,-1.067 1.2929,-0.3455 2.7612,-2.9871 2.8783,-3.4271 -0.8342,-1.2526 -1.0967,-1.7433 -1.0967,-3.4268 -0.6027,-0.0133 -0.4269,-0.0927 -0.9593,-0.1369 0,-2.4491 0.9964,-2.9778 0.1197,-5.6001 -0.2047,-0.612 -0.5154,-1.9208 -0.9037,-2.3856 -1.3802,-1.6529 -1.6379,-1.1268 -2.5186,-3.2369 -0.2024,-0.4856 -0.4465,-0.4955 -0.7688,-0.8762 -0.6077,-0.7189 -0.6602,-0.5372 -1.4176,-1.0497 -0.7574,-0.5125 -0.9275,-1.1837 -1.3671,-1.9207 -0.3382,-0.567 -1.1699,-1.1971 -1.2305,-1.9197 l 0.6854,0 c 0,-2.6793 0.623,-1.7376 0.2778,-4.2638 -0.0853,-0.6254 0.1576,-0.3904 -0.3368,-0.4556 -1.3535,-0.1783 -1.3467,-0.1321 -2.2921,-1.2914 -0.4155,-0.51 -0.6335,-0.5295 -0.6752,-1.2439 -0.0638,-1.0981 0.2625,-2.3354 -0.2645,-3.1617"
       style="fill:#ffffff;fill-opacity:1;fill-rule:nonzero;stroke:none"
       id="path3404"
       inkscape:connector-curvature="0" /><path
       d="m 377.924,297.4309 0.171,0 c 0.6704,2.4414 2.9151,4.2485 5.5624,4.2485 l 20.6504,0 c 2.6473,0 4.892,-1.8071 5.5624,-4.2485 l 0.1743,0 0,-0.9304 c 0.0202,-0.1933 0.0301,-0.3892 0.0301,-0.5876 l 0,-30.5107 c 0,-0.1981 -0.01,-0.3943 -0.0301,-0.5876 l 0,-113.4094 c -0.0348,0.005 -0.07,0.0122 -0.1068,0.0196 -1.0866,0.2214 -0.8527,1.294 -0.8527,2.5832 l -0.4133,0 c 0,-0.9947 0.0692,-1.1548 -0.6021,-1.59 -0.4056,-0.2633 -0.9,-0.5896 -1.4544,-0.6023 0.1321,-0.4958 0.0108,-0.3685 0.5488,-0.4133 l -10e-4,-1.5046 -0.9587,0 c 0,-0.576 -0.0584,-0.5551 0.1375,-0.9596 -0.4624,-0.2452 -0.8672,-0.6125 -1.2881,-0.9513 l -1.6206,0 c 0.1262,0.6676 0.3334,1.4327 0.4442,1.9109 -0.5054,-0.3663 -0.6763,-1.2983 -0.9485,-1.9109 l -6.1061,0 c -0.4776,0.5097 -0.5893,0.6696 0.2305,1.4687 0.3742,0.3656 0.3569,0.4424 0.9306,0.5768 l 0,0.2761 c -0.8396,0.0695 -1.4301,0.7637 -2.0608,1.0919 -0.3855,0.2007 -0.8447,0.2486 -1.2124,0.4323 -0.5439,0.2713 -0.3191,0.4357 -0.8098,0.8342 -0.9757,0.7929 -1.6529,0.1511 -2.7451,0.26 -0.9442,0.0938 -1.9545,0.2593 -3.0402,0.2593 0,0.7631 0.6279,3.2749 1.0446,4.0235 0.2971,0.5332 0.3807,0.633 1.148,0.633 0,0.7192 -0.0218,1.3076 0.0763,1.9803 0.1049,0.718 0.1981,1.2651 0.1981,1.9936 0.4318,-0.2092 0.6259,-0.1372 1.2337,-0.1372 l 0,1.0962 c 1.6444,0 1.0525,0.9822 0.2772,2.1977 -0.3291,0.5156 -0.3112,0.2979 -0.8254,0.5448 0.195,0.4036 0.1114,0.6276 0.2171,1.1514 0.4958,2.4565 1.0536,2.2125 1.2903,3.2326 -0.7959,1.196 -2.0052,1.539 -3.2896,2.1941 -0.5476,0.2778 -1.2863,0.6185 -1.9,0.8404 -1.2496,0.4522 -1.7745,0.3291 -1.9372,0.9406 -0.8139,-0.0669 -0.3036,-0.2271 -0.9179,-0.4556 -0.4649,-0.1732 -1.0565,0.2696 -2.6399,-0.1 -0.4969,-0.1157 -0.6494,-0.2534 -1.2393,-0.2662 -0.1145,0.4292 -0.9916,1.1676 -1.1135,1.2266 -0.7072,0.3497 -1.1409,-0.1605 -1.8136,-0.2577 l 0,90.7602 c -0.0218,0.203 -0.0334,0.4091 -0.0334,0.6177 l 0,30.5107 c 0,0.2086 0.0116,0.4147 0.0334,0.6177 l 0,0.9003 z"
       style="fill:#d3d2d2;fill-opacity:1;fill-rule:evenodd;stroke:none"
       id="path3406"
       inkscape:connector-curvature="0" /><g
       id="g3408"><g
         id="g3410"
         clip-path="url(#clipPath3412)" /></g><path
       d="m 415.1421,261.0513 0.0694,0 c 0.567,2.5866 2.8831,4.5377 5.6336,4.5377 l 20.6507,0 c 2.7507,0 5.0666,-1.9511 5.6336,-4.5377 l 0.1332,0 0,-1.2291 0,-30.5104 0,-40.7724 -0.3512,0 c -0.0335,-1.5452 -0.6109,0.3761 -0.6826,0.6848 -0.673,-0.0555 -0.5462,-0.3237 -1.1599,0.0649 l -1.4406,1.3088 c -0.2738,0.3798 -0.2489,0.4969 -0.8283,0.5448 -0.1621,-0.4034 0.3047,-0.2137 -0.4113,-0.2741 0,-0.6883 0.1369,-0.8433 0.1369,-1.6444 -0.7617,0 -0.8005,-0.1752 -0.957,0.411 l -0.2766,0 c -0.108,-0.405 -0.0556,-0.2216 -0.2739,-0.5479 -1.0621,0 -1.485,0.2041 -2.313,0.2684 l -0.1545,-0.5422 c -0.8005,0.0666 -0.1641,0.2738 -1.2334,0.2738 l 0,-2.4667 c -0.1417,-0.0748 -0.0844,-0.0309 -0.2596,-0.1508 -0.4669,-0.3203 -0.0213,-0.3234 -0.6996,-0.3974 0,-1.5171 0.5482,-0.5182 0.5482,-2.7403 -1.0899,0 -2.1608,0.4754 -2.1929,-0.9618 l 0.2741,0 c 0.1514,-0.4495 -0.0411,-0.117 0.2702,-0.1496 l 0.2778,0.0139 c 0,-1.6002 -0.2739,-1.374 -0.2739,-3.6984 -1.5349,-1.0279 -1.381,-1.3706 -2.3298,-1.3706 l -0.1371,-2.8774 c -0.4876,-0.3263 -2.3029,-1.264 -2.4849,-1.6472 -0.2092,-0.4391 -0.0748,-0.4802 0.1548,-0.819 -0.3972,-0.2106 -0.5638,-0.4368 -0.9193,-0.4283 -0.5562,0.0134 -0.1769,-1.4119 -0.1769,-2.1781 0.6886,0 0.7104,-0.015 1.2331,-0.1369 0,-1.2243 -0.2208,-0.6718 -0.6851,-1.3689 0.0776,-0.9343 0.8217,-1.1707 1.2333,-1.7815 -0.3078,-0.4567 -1.029,-0.8504 -1.8334,-0.6106 -0.6004,0.1786 -1.0398,0.7398 -1.5928,0.8861 0,-1.4652 0.6979,-1.8627 0.6987,-3.2908 9e-4,-0.9618 -0.1766,-0.807 -0.3509,-1.58 -0.3612,-1.6007 0.2676,-2.9361 0.2126,-3.6227 -0.0516,-0.6335 -0.4581,-0.7639 -0.8019,-1.131 -0.6894,-0.737 -0.9068,-1.5026 -2.2258,-1.6118 l 0,-0.822 c -0.3915,-0.0913 -0.4331,-0.1372 -0.9592,-0.1372 0,-1.2606 -0.5009,-0.6639 -0.7952,-1.6733 -0.2137,-0.7333 -0.1763,-1.4346 0.11,-2.0265 -0.4226,-0.2832 -0.6018,-0.4283 -1.0154,-0.7665 -0.3968,-0.3248 -0.4867,-0.4666 -1.1752,-0.4666 l 0,0.9593 c -0.9147,0.2126 -0.6945,0.0405 -1.6509,0.005 -1.8453,-0.0675 -0.8558,-1.1121 -2.9324,0.4827 -0.6208,0.4768 -0.6582,0.7404 -1.6957,0.7447 l 0,77.1911 c -0.0417,0.2786 -0.0635,0.5632 -0.0635,0.8532 l 0,30.5104 c 0,0.29 0.0218,0.5746 0.0635,0.8532 l 0,0.3759 z"
       style="fill:#7b7979;fill-opacity:1;fill-rule:evenodd;stroke:none"
       id="path3416"
       inkscape:connector-curvature="0" /><g
       id="g3418"><g
         id="g3420"
         clip-path="url(#clipPath3422)" /></g><path
       d="m 451.5514,307.6163 0.307,0 c 0.8254,2.1784 2.937,3.7372 5.3957,3.7372 l 20.6504,0 c 2.4588,0 4.5703,-1.5588 5.3958,-3.7372 l 0.371,0 0,-2.0293 0,-30.5107 0,-76.508 c -0.4104,-0.0425 -0.8209,-0.1091 -1.2016,-0.2216 -0.8059,-0.2393 -0.8433,-0.2155 -1.8382,-0.2155 0,0.7016 0.1485,0.8272 0.2738,1.37 l -1.2336,0 c -0.0539,0.6228 0.008,0.2197 -0.1395,0.4111 -0.009,-0.4176 -0.0618,-0.4998 -0.1369,-0.8218 -0.6843,0.0147 -1.3618,0.3464 -2.1382,0.4839 -1.3671,0.2418 -0.5145,-0.7081 -1.8346,-0.0732 0,3.4784 -0.9592,2.5662 -0.9592,6.0293 -0.5338,0 -0.9063,0.0978 -1.4545,0.1905 -1.0457,0.1766 -0.4467,0.0553 -1.0514,0.4555 -0.6196,0.4111 -2.1163,0.1707 -2.7555,-0.0462 -1.599,-0.5417 -3.4804,-0.5998 -5.5684,-0.5998 -0.0125,-0.5542 -0.2282,-1.2628 -0.411,-1.6446 l -1.6447,0 c -0.1185,-0.1766 -0.174,-0.2943 -0.3577,-0.4644 -0.1505,-0.1397 -0.0578,-0.032 -0.2324,-0.1788 -0.4349,-0.3657 -0.4743,-0.8252 -0.7365,-1.319 -0.3126,-0.5865 -1.2288,-1.1891 -1.9604,-1.1891 -0.0783,0.7098 0.1613,0.248 -0.2767,0.4113 -0.4652,-0.6945 -0.7327,-0.5207 -1.7833,-0.5465 -0.5468,-0.0134 -0.64,-0.1077 -0.9745,-0.1165 -0.4215,-0.01 -0.474,0.1301 -0.8654,0.1987 -0.5967,0.1046 -0.4539,-0.0783 -0.9355,-0.1843 -0.3257,-0.0711 -0.6947,-0.049 -1.0227,-0.005 -0.269,0.0366 -0.5958,0.0405 -0.8813,0.1057 l 0,73.6223 c -0.042,0.2798 -0.0641,0.5652 -0.0641,0.8558 l 0,30.5107 c 0,0.2905 0.0221,0.576 0.0641,0.8558 l 0,1.1735 z"
       style="fill:#ffffff;fill-opacity:1;fill-rule:evenodd;stroke:none"
       id="path3426"
       inkscape:connector-curvature="0" /><g
       id="g3428"><g
         id="g3430"
         clip-path="url(#clipPath3432)" /></g><path
       d="m 176.557,180.4025 c 0,0.5947 0.4788,1.7263 0.7645,2.1983 1.0387,1.7135 2.6986,3.1119 4.7143,3.9552 2.3599,0.9873 4.1891,1.5355 6.7593,1.9734 0.646,0.11 1.9442,0.3867 2.5401,0.3867 l 5.0148,0 c 1.5857,0 6.5145,-1.3436 7.9384,-1.8422 1.0355,-0.3626 2.4845,-1.0965 3.268,-1.6708 l 1.3885,-1.0769 1.0301,-1.3447 c 0.8115,-1.2422 1.0406,-2.0509 1.0406,-3.8534 l 0,-24.3026 c 0,-3.979 0.2778,-5.447 -2.0118,-7.7233 -2.6637,-2.6478 -9.5828,-4.7602 -13.4161,-4.8722 -0.352,-0.0104 -0.8966,-0.0762 -1.1078,-0.0762 -1.2472,0 -1.3544,0.1117 -2.2969,0.1536 -3.4084,0.1525 -8.6471,1.5733 -11.5152,3.1283 -1.8771,1.0177 -4.1108,3.1442 -4.1108,5.5662 l 0,29.4006 z m 18.5179,-50.1715 c 1.1461,0 4.2551,0.3957 5.2915,0.6046 4.9093,0.9893 8.4928,2.0322 12.6731,4.7557 1.5318,0.9981 1.9695,1.2949 3.3931,2.4732 2.0361,1.6849 4.0793,3.9541 5.1755,6.4732 0.2775,0.6378 0.5541,1.4358 0.7231,2.1493 0.1616,0.6828 0.3764,1.8394 0.3764,2.5302 l 0,32.7999 c 0,1.5605 -0.9935,4.0561 -1.5993,5.4638 -0.159,0.3699 -0.2415,0.6423 -0.4005,0.9567 -0.5361,1.0599 -3.0393,3.5158 -3.9719,4.4459 -0.2282,0.2276 -0.5729,0.5133 -0.7642,0.676 l -2.3185,1.8494 c -1.4808,1.1069 -3.6751,2.2552 -5.3975,3.0169 -0.6392,0.2829 -1.3416,0.5434 -2.0381,0.7789 -2.3692,0.8014 -4.3849,1.2158 -6.883,1.4962 -2.9107,0.3271 -7.8497,0.3543 -10.5665,0.007 -3.132,-0.3999 -6.77,-1.3892 -9.7384,-2.3839 -0.33,-0.1106 -0.5632,-0.199 -0.8365,-0.2877 -0.5097,-0.1656 -1.1081,-0.3844 -1.6296,-0.5193 l -0.007,1.5412 -11.692,0 -0.005,-92.363 11.6971,0 0,27.1599 c 0.3164,-0.0108 1.5798,-0.4947 1.9372,-0.6177 1.8859,-0.6488 3.6902,-1.241 5.6792,-1.7144 4.4085,-1.0496 6.6178,-1.292 10.9015,-1.292"
       style="fill:#ffffff;fill-opacity:1;fill-rule:evenodd;stroke:none"
       id="path3436"
       inkscape:connector-curvature="0" /><path
       d="m 277.8962,164.1257 c 0.0802,-0.6874 0.0218,-5.7773 0.0218,-6.9208 0,-2.0208 0.2696,-4.9198 -0.3651,-6.4899 -0.7478,-1.851 -1.7731,-2.8446 -3.1428,-3.8313 -3.9968,-2.8792 -12.7746,-4.0176 -17.0152,-3.3251 -4.5145,0.7373 -12.1411,2.3803 -13.6882,7.0342 -0.7013,2.109 0.0961,3.9388 1.2554,5.0854 2.3378,2.3122 6.4744,3.4965 9.881,3.9603 4.4785,0.6094 13.2001,2.1736 17.5692,3.1864 l 5.4839,1.3008 z m -46.0933,19.4485 c 2.8012,0 5.6024,0 8.4033,0 0.7316,0 3.5711,-0.212 3.9628,0.1732 0.1928,0.1894 0.2761,0.3793 0.5176,0.5927 0.2495,0.22 0.3538,0.2764 0.5457,0.4689 3.1014,3.1079 8.0098,5.1913 13.5037,5.1913 3.1935,0 3.6822,0.2124 6.76,-0.4337 3.4155,-0.7166 8.0348,-1.8107 10.5307,-4.2006 1.6784,-1.6073 2.4412,-3.9733 1.4123,-6.1566 -0.2075,-0.4399 -0.6648,-1.1188 -0.9233,-1.3739 -0.8671,-0.8558 -0.303,-0.3708 -1.2503,-1.0426 -0.9857,-0.699 -1.8723,-1.105 -2.9645,-1.5429 -0.4901,-0.1965 -1.1554,-0.4153 -1.6659,-0.5635 -2.6541,-0.7725 -4.8711,-0.9885 -7.6119,-1.4511 l -15.2354,-2.8925 c -1.2778,-0.2752 -2.3037,-0.5975 -3.4883,-1.01 -2.4999,-0.8702 -4.7514,-2.0109 -6.6793,-3.5107 -0.1088,-0.0844 -0.2194,-0.1754 -0.3328,-0.263 l -0.8835,-0.7291 c -0.6475,-0.4059 -0.7192,-0.7767 -1.1381,-1.156 l -1.4035,-1.9102 c -2.4349,-3.9039 -2.0948,-7.4631 -2.0948,-11.7817 0,-2.2473 1.9874,-6.1531 3.3353,-7.9061 0.3914,-0.5091 0.8946,-1.0176 1.3391,-1.4635 l 3.7882,-3.1813 c 1.0256,-0.7883 1.3972,-0.9904 2.5018,-1.6614 3.0391,-1.8454 6.7235,-3.1657 10.2773,-3.7752 l 3.6822,-0.449 c 7.3851,-0.2407 9.1616,-0.218 16.1978,1.7379 0.7072,0.1967 4.7185,1.5835 5.0278,1.5616 l 0.021,-3.3758 11.6606,-2e-4 0.0116,51.6526 c 0,2.5926 -2.0699,6.5747 -3.543,8.4611 l -3.985,3.6658 c -1.2674,1.0207 -3.5453,2.5554 -5.0434,3.2839 -2.6955,1.3113 -5.3198,2.2884 -8.3098,2.8194 l -3.7063,0.4841 c -0.3118,0.0275 -1.032,0.087 -1.2719,0.087 -4.621,0 -6.5072,0.1965 -10.8697,-0.6301 -4.536,-0.8595 -7.2196,-1.9278 -11.0168,-4.2795 -1.3286,-0.8231 -2.0733,-1.2673 -3.3163,-2.2946 -0.1352,-0.112 -0.2234,-0.1959 -0.3753,-0.3008 -0.2364,-0.1635 -0.1723,-0.0805 -0.4034,-0.2775 -0.2985,-0.254 -0.4855,-0.4172 -0.756,-0.6877 -0.2489,-0.2491 -0.4898,-0.403 -0.7163,-0.6437 -0.2446,-0.2599 -0.3807,-0.4564 -0.644,-0.7177 -0.8504,-0.8425 -2.249,-3.0124 -2.7559,-4.1171 -0.3923,-0.8552 -1.239,-3.386 -1.0941,-4.4002"
       style="fill:#ffffff;fill-opacity:1;fill-rule:evenodd;stroke:none"
       id="path3438"
       inkscape:connector-curvature="0" /><path
       d="m 109.6543,181.4221 c 0,0.6174 0.5298,1.8049 0.7551,2.221 1.7726,3.274 5.7892,4.6902 9.2846,5.5006 1.207,0.2798 3.8223,0.8566 5.0063,0.8566 2.228,0 4.3983,0.1551 6.6379,-0.2307 0.6032,-0.1037 1.0772,-0.1927 1.73,-0.3424 0.972,-0.2228 2.2669,-0.4918 3.2046,-0.8618 1.9391,-0.7653 3.6626,-1.6044 5.2741,-2.8763 l 1.9967,-2.0707 c 0.3648,-0.1598 11.2315,-0.0442 12.155,-0.0442 0.2602,1.9134 -1.9565,5.9289 -3.1431,7.5969 -0.6616,0.93 -3.0753,3.2898 -4.1051,3.9682 -0.4425,0.2917 -1.0375,0.7554 -1.5165,1.1199 -1.0066,0.7662 -2.2255,1.4534 -3.3435,2.0985 -3.2032,1.8488 -8.9005,3.4047 -12.5983,3.4892 -6.6841,0.1531 -8.3047,0.2982 -14.7895,-1.2311 -2.7448,-0.6471 -5.1996,-1.8408 -7.5597,-3.2162 -3.2236,-1.8791 -6.522,-4.3954 -8.5255,-7.5461 -0.682,-1.0726 -1.3184,-2.3221 -1.7053,-3.7363 -0.4791,-1.7504 -0.4501,-2.8265 -0.4501,-4.8649 0,-4.0524 0.3622,-7.3842 2.819,-10.5735 l 0.9085,-1.1301 c 0.6968,-1.0764 3.2876,-2.799 4.5352,-3.5314 1.8963,-1.1135 3.9571,-1.8709 6.0548,-2.6045 4.7644,-1.6665 8.8177,-1.8474 13.5876,-2.5535 1.6749,-0.2483 3.1113,-0.4694 4.6323,-0.7333 3.78,-0.6545 10.88,-1.9806 13.0632,-5.815 1.2597,-2.2119 0.0102,-4.6669 -1.569,-6.237 -1.3969,-1.3893 -3.4378,-2.4344 -5.4158,-3.0975 -2.0724,-0.6947 -6.1351,-1.595 -8.3064,-1.5848 -2.1317,0.01 -4.0374,-0.0471 -5.9207,0.2568 -1.6322,0.2631 -3.4679,0.7081 -4.8966,1.2053 -2.1331,0.7424 -3.5878,1.6517 -5.2764,2.8953 -0.1054,0.0777 -0.104,0.0658 -0.1947,0.1403 l -1.1461,1.1486 c -0.2228,0.2872 -0.3912,0.7804 -0.7551,0.7804 -1.8885,6e-4 -11.0033,0.1247 -12.1198,-0.0369 0.081,-0.2205 0.1655,-0.8968 0.2179,-1.1673 0.3331,-1.7124 1.1574,-3.4764 2.0467,-4.9158 0.7602,-1.2305 1.4377,-2.1257 2.4525,-3.1555 0.5635,-0.5721 0.9482,-0.8487 1.5117,-1.2952 0.1726,-0.1369 0.1843,-0.2253 0.3784,-0.3875 3.0274,-2.5265 6.412,-4.5334 10.1489,-5.7325 2.2065,-0.7081 4.5539,-1.1979 6.9486,-1.4774 2.6217,-0.3061 5.1103,-0.1809 7.7085,-0.1809 2.5982,0 7.24,0.9893 9.555,1.7405 0.7101,0.2305 1.4222,0.3943 2.0965,0.7127 2.4792,1.1704 4.9833,2.5491 7.1499,4.1451 2.7649,2.0366 4.9977,4.3639 6.5219,7.5044 0.5463,1.1251 1.1067,3.1615 1.1067,4.4949 0,2.8913 0.1185,5.4099 -0.6282,8.2165 -0.4841,1.8193 -1.3258,3.0521 -2.2456,4.5388 -0.2942,0.4754 -0.7047,0.8246 -1.0502,1.2456 -0.6959,0.8484 -1.5461,1.3901 -2.4316,2.0789 -2.5705,1.999 -6.1758,3.3457 -9.3492,4.2653 -6.1316,1.7768 -13.0221,1.9046 -19.2875,3.3627 -3.3061,0.7694 -8.7792,1.9608 -10.6149,5.3005 -0.4244,0.7716 -0.5437,1.4874 -0.5437,2.3468"
       style="fill:#ffffff;fill-opacity:1;fill-rule:evenodd;stroke:none"
       id="path3440"
       inkscape:connector-curvature="0" /><path
       d="m 310.3625,182.6118 c 0,0.3799 2.2675,2.6584 2.6153,2.9552 1.0202,0.8699 2.0931,1.5789 3.3695,2.2405 0.6506,0.337 1.2552,0.5298 1.9945,0.8223 0.6777,0.2679 1.3813,0.4396 2.1549,0.6318 1.4153,0.3515 3.367,0.6614 4.9626,0.6614 l 0.003,11.9228 c -2.7374,0 -7.0305,-0.8757 -9.5542,-1.6107 -0.4776,-0.1389 -2.4168,-0.7891 -2.6926,-0.7894 -0.7342,-10e-4 -2.2,-0.0528 -2.8494,0.0329 -0.0867,7.2343 -0.001,15.0431 -5e-4,22.3415 l -11.6949,0 0,-71.7531 c 0,-2.3672 1.944,-6.1237 3.2981,-7.9282 0.8501,-1.133 1.3586,-1.4159 2.0942,-2.1595 l 3.848,-3.1167 c 0.8881,-0.6485 2.4914,-1.5879 3.5218,-2.0826 4.0272,-1.9338 8.2766,-3.1331 12.8358,-3.23 0.2977,-0.007 0.4584,-0.0806 0.5911,-0.0806 2.5911,0 5.142,-0.1193 7.7445,0.2263 0.896,0.1187 1.5763,0.2063 2.4486,0.3676 1.3076,0.2421 5.3345,1.2376 6.5951,1.8108 l 3.6994,1.9128 c 1.8766,1.1095 4.1922,2.5299 5.7654,4.0938 0.2523,0.2509 0.4658,0.3875 0.7189,0.6437 2.1495,2.1779 4.604,5.6549 4.606,9.2617 -0.8079,0.0867 -10.2365,0.0323 -11.8596,0.0323 -0.3957,0 -0.7084,-0.4796 -0.9255,-0.6959 -1.023,-1.0205 -0.7639,-0.7597 -1.8485,-1.635 l -0.6346,-0.4697 c -3.627,-2.7326 -9.8981,-4.2154 -14.7184,-3.7168 -1.0992,0.1139 -1.9312,0.1281 -2.8771,0.3073 -0.8949,0.1695 -1.6648,0.2993 -2.5155,0.5159 -2.8658,0.7302 -6.5047,1.673 -8.5612,3.7785 -0.5114,0.5233 -0.9734,0.9324 -1.3961,1.6699 -0.2877,0.5023 -0.7384,1.7748 -0.7384,2.2788 l 0,30.7604 z"
       style="fill:#ffffff;fill-opacity:1;fill-rule:evenodd;stroke:none"
       id="path3442"
       inkscape:connector-curvature="0" /><path
       d="m 76.0844,131.4694 11.4239,0 -0.0348,68.4406 -11.4251,0 0.036,-68.4406 z m -0.0345,76.5698 11.4236,0 0.0354,11.9231 -0.2052,0 -11.3891,0 0.1333,0 0.002,-11.9231 z"
       style="fill:#ffffff;fill-opacity:1;fill-rule:evenodd;stroke:none"
       id="path3444"
       inkscape:connector-curvature="0" /></g></svg>